<svg viewBox="0 0 280 100">
      <g fill="none" fill-rule="evenodd" stroke="black" stroke-width="1" class="lines">
        <path d="M 35.00,3.00
           C 35.00,3.00 35.00,8.00 35.00,8.00
             35.00,8.00 40.00,8.00 40.00,8.00
             40.00,8.00 40.00,14.00 40.00,14.00
             40.00,14.00 46.00,14.00 46.00,14.00
             46.00,14.00 46.00,41.00 46.00,41.00
             46.00,41.00 34.00,41.00 34.00,41.00
             34.00,41.00 34.00,30.00 34.00,30.00
             34.00,30.00 18.00,30.00 18.00,30.00
             18.00,30.00 18.00,41.00 18.00,41.00
             18.00,41.00 7.00,41.00 7.00,41.00
             7.00,41.00 7.00,14.00 7.00,14.00
             7.00,14.00 12.00,14.00 12.00,14.00
             12.00,14.00 12.00,8.00 12.00,8.00
             12.00,8.00 18.00,8.00 18.00,8.00
             18.00,8.00 18.00,3.00 18.00,3.00
             18.00,3.00 35.00,3.00 35.00,3.00 Z
           M 24.00,9.00
           C 24.00,9.00 24.00,14.00 24.00,14.00
             24.00,14.00 18.00,14.00 18.00,14.00
             18.00,14.00 18.00,24.00 18.00,24.00
             18.00,24.00 34.00,24.00 34.00,24.00
             34.00,24.00 34.00,14.00 34.00,14.00
             34.00,14.00 29.00,14.00 29.00,14.00
             29.00,14.00 29.00,9.00 29.00,9.00
             29.00,9.00 24.00,9.00 24.00,9.00 Z " stroke-dasharray="316.85528564453125" style="stroke-dashoffset: 316.501px;"></path>
        <path d="M 62.00,3.00
           C 62.00,3.00 62.00,14.00 62.00,14.00
             62.00,14.00 84.00,14.00 84.00,14.00
             84.00,14.00 84.00,19.00 84.00,19.00
             84.00,19.00 90.00,19.00 90.00,19.00
             90.00,19.00 90.00,41.00 90.00,41.00
             90.00,41.00 78.00,41.00 78.00,41.00
             78.00,41.00 78.00,20.00 78.00,20.00
             78.00,20.00 62.00,20.00 62.00,20.00
             62.00,20.00 62.00,41.00 62.00,41.00
             62.00,41.00 51.00,41.00 51.00,41.00
             51.00,41.00 51.00,3.00 51.00,3.00
             51.00,3.00 62.00,3.00 62.00,3.00 Z" stroke-dasharray="150" style="stroke-dashoffset: 150px;"></path>
        <path d="M 128.00,14.00
           C 128.00,14.00 128.00,19.00 128.00,19.00
             128.00,19.00 134.00,19.00 134.00,19.00
             134.00,19.00 134.00,41.00 134.00,41.00
             134.00,41.00 122.00,41.00 122.00,41.00
             122.00,41.00 122.00,20.00 122.00,20.00
             122.00,20.00 117.00,20.00 117.00,20.00
             117.00,20.00 117.00,41.00 117.00,41.00
             117.00,41.00 106.00,41.00 106.00,41.00
             106.00,41.00 106.00,20.00 106.00,20.00
             106.00,20.00 101.00,20.00 101.00,20.00
             101.00,20.00 101.00,41.00 101.00,41.00
             101.00,41.00 95.00,41.00 95.00,41.00
             95.00,41.00 95.00,14.00 95.00,14.00
             95.00,14.00 128.00,14.00 128.00,14.00 Z" stroke-dasharray="441.1739501953125" style="stroke-dashoffset: 441.174px;"></path>
        <path d="M 172.00,14.00
           C 172.00,14.00 172.00,19.00 172.00,19.00
             172.00,19.00 178.00,19.00 178.00,19.00
             178.00,19.00 178.00,30.00 178.00,30.00
             178.00,30.00 150.00,30.00 150.00,30.00
             150.00,30.00 150.00,35.00 150.00,35.00
             150.00,35.00 172.00,35.00 172.00,35.00
             172.00,35.00 172.00,41.00 172.00,41.00
             172.00,41.00 144.00,41.00 144.00,41.00
             144.00,41.00 144.00,36.00 144.00,36.00
             144.00,36.00 139.00,36.00 139.00,36.00
             139.00,36.00 139.00,19.00 139.00,19.00
             139.00,19.00 144.00,19.00 144.00,19.00
             144.00,19.00 144.00,14.00 144.00,14.00
             144.00,14.00 172.00,14.00 172.00,14.00 Z
           M 150.00,20.00
           C 150.00,20.00 150.00,24.00 150.00,24.00
             150.00,24.00 166.00,24.00 166.00,24.00
             166.00,24.00 166.00,20.00 166.00,20.00
             166.00,20.00 150.00,20.00 150.00,20.00 Z" style="stroke-dashoffset: 338.305px;"></path>
        <path d="M 222.00,3.00
           C 222.00,3.00 222.00,41.00 222.00,41.00
             222.00,41.00 188.00,41.00 188.00,41.00
             188.00,41.00 188.00,36.00 188.00,36.00
             188.00,36.00 183.00,36.00 183.00,36.00
             183.00,36.00 183.00,19.00 183.00,19.00
             183.00,19.00 188.00,19.00 188.00,19.00
             188.00,19.00 188.00,14.00 188.00,14.00
             188.00,14.00 210.00,14.00 210.00,14.00
             210.00,14.00 210.00,3.00 210.00,3.00
             210.00,3.00 222.00,3.00 222.00,3.00 Z
           M 194.00,20.00
           C 194.00,20.00 194.00,35.00 194.00,35.00
             194.00,35.00 210.00,35.00 210.00,35.00
             210.00,35.00 210.00,20.00 210.00,20.00
             210.00,20.00 194.00,20.00 194.00,20.00 Z" stroke-dasharray="406.8699035644531" style="stroke-dashoffset: 406.87px;"></path>
      </g>
    </svg>